<?xml version="1.0" encoding="UTF-8"?>
<!DOCTYPE score-partwise PUBLIC "-//Recordare//DTD MusicXML 4.0 Partwise//EN" "http://www.musicxml.org/dtds/partwise.dtd">
<score-partwise version="4.0">
  <work>
    <work-title>Twinkle Twinkle Little Star</work-title>
  </work>
  <identification>
    <creator type="composer">Traditional</creator>
  </identification>
  <part-list>
    <score-part id="P1">
      <part-name>Piano</part-name>
    </score-part>
  </part-list>
  <part id="P1">
    <!-- Verse 1: Twinkle twinkle little star -->
    <measure number="1">
      <attributes>
        <divisions>2</divisions>
        <key><fifths>0</fifths></key>
        <time><beats>4</beats><beat-type>4</beat-type></time>
        <staves>2</staves>
        <clef number="1"><sign>G</sign><line>2</line></clef>
        <clef number="2"><sign>F</sign><line>4</line></clef>
      </attributes>
      <direction placement="above">
        <direction-type>
          <metronome><beat-unit>quarter</beat-unit><per-minute>100</per-minute></metronome>
        </direction-type>
      </direction>
      <!-- RH: C C G G - "Twin-kle twin-kle" -->
      <note>
        <pitch><step>C</step><octave>4</octave></pitch>
        <duration>2</duration><type>quarter</type>
        <staff>1</staff>
        <lyric number="1"><syllabic>begin</syllabic><text>Twin</text></lyric>
      </note>
      <note>
        <pitch><step>C</step><octave>4</octave></pitch>
        <duration>2</duration><type>quarter</type>
        <staff>1</staff>
        <lyric number="1"><syllabic>end</syllabic><text>kle</text></lyric>
      </note>
      <note>
        <pitch><step>G</step><octave>4</octave></pitch>
        <duration>2</duration><type>quarter</type>
        <staff>1</staff>
        <lyric number="1"><syllabic>begin</syllabic><text>twin</text></lyric>
      </note>
      <note>
        <pitch><step>G</step><octave>4</octave></pitch>
        <duration>2</duration><type>quarter</type>
        <staff>1</staff>
        <lyric number="1"><syllabic>end</syllabic><text>kle</text></lyric>
      </note>
      <!-- LH: C whole note -->
      <backup><duration>8</duration></backup>
      <note>
        <pitch><step>C</step><octave>3</octave></pitch>
        <duration>8</duration><type>whole</type>
        <staff>2</staff>
      </note>
    </measure>

    <measure number="2">
      <!-- RH: A A G (half) - "lit-tle star" -->
      <note>
        <pitch><step>A</step><octave>4</octave></pitch>
        <duration>2</duration><type>quarter</type>
        <staff>1</staff>
        <lyric number="1"><syllabic>begin</syllabic><text>lit</text></lyric>
      </note>
      <note>
        <pitch><step>A</step><octave>4</octave></pitch>
        <duration>2</duration><type>quarter</type>
        <staff>1</staff>
        <lyric number="1"><syllabic>end</syllabic><text>tle</text></lyric>
      </note>
      <note>
        <pitch><step>G</step><octave>4</octave></pitch>
        <duration>4</duration><type>half</type>
        <staff>1</staff>
        <lyric number="1"><syllabic>single</syllabic><text>star,</text></lyric>
      </note>
      <!-- LH: F half, C half -->
      <backup><duration>8</duration></backup>
      <note>
        <pitch><step>F</step><octave>2</octave></pitch>
        <duration>4</duration><type>half</type>
        <staff>2</staff>
      </note>
      <note>
        <pitch><step>C</step><octave>3</octave></pitch>
        <duration>4</duration><type>half</type>
        <staff>2</staff>
      </note>
    </measure>

    <!-- How I wonder what you are -->
    <measure number="3">
      <!-- RH: F F E E - "How I won-der" -->
      <note>
        <pitch><step>F</step><octave>4</octave></pitch>
        <duration>2</duration><type>quarter</type>
        <staff>1</staff>
        <lyric number="1"><syllabic>single</syllabic><text>How</text></lyric>
      </note>
      <note>
        <pitch><step>F</step><octave>4</octave></pitch>
        <duration>2</duration><type>quarter</type>
        <staff>1</staff>
        <lyric number="1"><syllabic>single</syllabic><text>I</text></lyric>
      </note>
      <note>
        <pitch><step>E</step><octave>4</octave></pitch>
        <duration>2</duration><type>quarter</type>
        <staff>1</staff>
        <lyric number="1"><syllabic>begin</syllabic><text>won</text></lyric>
      </note>
      <note>
        <pitch><step>E</step><octave>4</octave></pitch>
        <duration>2</duration><type>quarter</type>
        <staff>1</staff>
        <lyric number="1"><syllabic>end</syllabic><text>der</text></lyric>
      </note>
      <!-- LH: F whole -->
      <backup><duration>8</duration></backup>
      <note>
        <pitch><step>F</step><octave>2</octave></pitch>
        <duration>8</duration><type>whole</type>
        <staff>2</staff>
      </note>
    </measure>

    <measure number="4">
      <!-- RH: D D C (half) - "what you are" -->
      <note>
        <pitch><step>D</step><octave>4</octave></pitch>
        <duration>2</duration><type>quarter</type>
        <staff>1</staff>
        <lyric number="1"><syllabic>single</syllabic><text>what</text></lyric>
      </note>
      <note>
        <pitch><step>D</step><octave>4</octave></pitch>
        <duration>2</duration><type>quarter</type>
        <staff>1</staff>
        <lyric number="1"><syllabic>single</syllabic><text>you</text></lyric>
      </note>
      <note>
        <pitch><step>C</step><octave>4</octave></pitch>
        <duration>4</duration><type>half</type>
        <staff>1</staff>
        <lyric number="1"><syllabic>single</syllabic><text>are.</text></lyric>
      </note>
      <!-- LH: G half, C half -->
      <backup><duration>8</duration></backup>
      <note>
        <pitch><step>G</step><octave>2</octave></pitch>
        <duration>4</duration><type>half</type>
        <staff>2</staff>
      </note>
      <note>
        <pitch><step>C</step><octave>3</octave></pitch>
        <duration>4</duration><type>half</type>
        <staff>2</staff>
      </note>
    </measure>

    <!-- Up above the world so high -->
    <measure number="5">
      <!-- RH: G G F F - "Up a-bove the" -->
      <note>
        <pitch><step>G</step><octave>4</octave></pitch>
        <duration>2</duration><type>quarter</type>
        <staff>1</staff>
        <lyric number="1"><syllabic>single</syllabic><text>Up</text></lyric>
      </note>
      <note>
        <pitch><step>G</step><octave>4</octave></pitch>
        <duration>2</duration><type>quarter</type>
        <staff>1</staff>
        <lyric number="1"><syllabic>begin</syllabic><text>a</text></lyric>
      </note>
      <note>
        <pitch><step>F</step><octave>4</octave></pitch>
        <duration>2</duration><type>quarter</type>
        <staff>1</staff>
        <lyric number="1"><syllabic>end</syllabic><text>bove</text></lyric>
      </note>
      <note>
        <pitch><step>F</step><octave>4</octave></pitch>
        <duration>2</duration><type>quarter</type>
        <staff>1</staff>
        <lyric number="1"><syllabic>single</syllabic><text>the</text></lyric>
      </note>
      <!-- LH: G whole -->
      <backup><duration>8</duration></backup>
      <note>
        <pitch><step>G</step><octave>2</octave></pitch>
        <duration>8</duration><type>whole</type>
        <staff>2</staff>
      </note>
    </measure>

    <measure number="6">
      <!-- RH: E E D (half) - "world so high," -->
      <note>
        <pitch><step>E</step><octave>4</octave></pitch>
        <duration>2</duration><type>quarter</type>
        <staff>1</staff>
        <lyric number="1"><syllabic>single</syllabic><text>world</text></lyric>
      </note>
      <note>
        <pitch><step>E</step><octave>4</octave></pitch>
        <duration>2</duration><type>quarter</type>
        <staff>1</staff>
        <lyric number="1"><syllabic>single</syllabic><text>so</text></lyric>
      </note>
      <note>
        <pitch><step>D</step><octave>4</octave></pitch>
        <duration>4</duration><type>half</type>
        <staff>1</staff>
        <lyric number="1"><syllabic>single</syllabic><text>high,</text></lyric>
      </note>
      <!-- LH: C half, G half -->
      <backup><duration>8</duration></backup>
      <note>
        <pitch><step>C</step><octave>3</octave></pitch>
        <duration>4</duration><type>half</type>
        <staff>2</staff>
      </note>
      <note>
        <pitch><step>G</step><octave>2</octave></pitch>
        <duration>4</duration><type>half</type>
        <staff>2</staff>
      </note>
    </measure>

    <!-- Like a diamond in the sky -->
    <measure number="7">
      <!-- RH: G G F F - "Like a dia-mond" -->
      <note>
        <pitch><step>G</step><octave>4</octave></pitch>
        <duration>2</duration><type>quarter</type>
        <staff>1</staff>
        <lyric number="1"><syllabic>single</syllabic><text>Like</text></lyric>
      </note>
      <note>
        <pitch><step>G</step><octave>4</octave></pitch>
        <duration>2</duration><type>quarter</type>
        <staff>1</staff>
        <lyric number="1"><syllabic>single</syllabic><text>a</text></lyric>
      </note>
      <note>
        <pitch><step>F</step><octave>4</octave></pitch>
        <duration>2</duration><type>quarter</type>
        <staff>1</staff>
        <lyric number="1"><syllabic>begin</syllabic><text>dia</text></lyric>
      </note>
      <note>
        <pitch><step>F</step><octave>4</octave></pitch>
        <duration>2</duration><type>quarter</type>
        <staff>1</staff>
        <lyric number="1"><syllabic>end</syllabic><text>mond</text></lyric>
      </note>
      <!-- LH: G whole -->
      <backup><duration>8</duration></backup>
      <note>
        <pitch><step>G</step><octave>2</octave></pitch>
        <duration>8</duration><type>whole</type>
        <staff>2</staff>
      </note>
    </measure>

    <measure number="8">
      <!-- RH: E E D (half) - "in the sky." -->
      <note>
        <pitch><step>E</step><octave>4</octave></pitch>
        <duration>2</duration><type>quarter</type>
        <staff>1</staff>
        <lyric number="1"><syllabic>single</syllabic><text>in</text></lyric>
      </note>
      <note>
        <pitch><step>E</step><octave>4</octave></pitch>
        <duration>2</duration><type>quarter</type>
        <staff>1</staff>
        <lyric number="1"><syllabic>single</syllabic><text>the</text></lyric>
      </note>
      <note>
        <pitch><step>D</step><octave>4</octave></pitch>
        <duration>4</duration><type>half</type>
        <staff>1</staff>
        <lyric number="1"><syllabic>single</syllabic><text>sky.</text></lyric>
      </note>
      <!-- LH: C half, G half -->
      <backup><duration>8</duration></backup>
      <note>
        <pitch><step>C</step><octave>3</octave></pitch>
        <duration>4</duration><type>half</type>
        <staff>2</staff>
      </note>
      <note>
        <pitch><step>G</step><octave>2</octave></pitch>
        <duration>4</duration><type>half</type>
        <staff>2</staff>
      </note>
    </measure>

    <!-- Verse 2: Twinkle twinkle little star (repeat) -->
    <measure number="9">
      <!-- RH: C C G G - "Twin-kle twin-kle" -->
      <note>
        <pitch><step>C</step><octave>4</octave></pitch>
        <duration>2</duration><type>quarter</type>
        <staff>1</staff>
        <lyric number="1"><syllabic>begin</syllabic><text>Twin</text></lyric>
      </note>
      <note>
        <pitch><step>C</step><octave>4</octave></pitch>
        <duration>2</duration><type>quarter</type>
        <staff>1</staff>
        <lyric number="1"><syllabic>end</syllabic><text>kle</text></lyric>
      </note>
      <note>
        <pitch><step>G</step><octave>4</octave></pitch>
        <duration>2</duration><type>quarter</type>
        <staff>1</staff>
        <lyric number="1"><syllabic>begin</syllabic><text>twin</text></lyric>
      </note>
      <note>
        <pitch><step>G</step><octave>4</octave></pitch>
        <duration>2</duration><type>quarter</type>
        <staff>1</staff>
        <lyric number="1"><syllabic>end</syllabic><text>kle</text></lyric>
      </note>
      <!-- LH: C whole -->
      <backup><duration>8</duration></backup>
      <note>
        <pitch><step>C</step><octave>3</octave></pitch>
        <duration>8</duration><type>whole</type>
        <staff>2</staff>
      </note>
    </measure>

    <measure number="10">
      <!-- RH: A A G (half) - "lit-tle star" -->
      <note>
        <pitch><step>A</step><octave>4</octave></pitch>
        <duration>2</duration><type>quarter</type>
        <staff>1</staff>
        <lyric number="1"><syllabic>begin</syllabic><text>lit</text></lyric>
      </note>
      <note>
        <pitch><step>A</step><octave>4</octave></pitch>
        <duration>2</duration><type>quarter</type>
        <staff>1</staff>
        <lyric number="1"><syllabic>end</syllabic><text>tle</text></lyric>
      </note>
      <note>
        <pitch><step>G</step><octave>4</octave></pitch>
        <duration>4</duration><type>half</type>
        <staff>1</staff>
        <lyric number="1"><syllabic>single</syllabic><text>star,</text></lyric>
      </note>
      <!-- LH: F half, C half -->
      <backup><duration>8</duration></backup>
      <note>
        <pitch><step>F</step><octave>2</octave></pitch>
        <duration>4</duration><type>half</type>
        <staff>2</staff>
      </note>
      <note>
        <pitch><step>C</step><octave>3</octave></pitch>
        <duration>4</duration><type>half</type>
        <staff>2</staff>
      </note>
    </measure>

    <!-- How I wonder what you are (final) -->
    <measure number="11">
      <!-- RH: F F E E - "How I won-der" -->
      <note>
        <pitch><step>F</step><octave>4</octave></pitch>
        <duration>2</duration><type>quarter</type>
        <staff>1</staff>
        <lyric number="1"><syllabic>single</syllabic><text>How</text></lyric>
      </note>
      <note>
        <pitch><step>F</step><octave>4</octave></pitch>
        <duration>2</duration><type>quarter</type>
        <staff>1</staff>
        <lyric number="1"><syllabic>single</syllabic><text>I</text></lyric>
      </note>
      <note>
        <pitch><step>E</step><octave>4</octave></pitch>
        <duration>2</duration><type>quarter</type>
        <staff>1</staff>
        <lyric number="1"><syllabic>begin</syllabic><text>won</text></lyric>
      </note>
      <note>
        <pitch><step>E</step><octave>4</octave></pitch>
        <duration>2</duration><type>quarter</type>
        <staff>1</staff>
        <lyric number="1"><syllabic>end</syllabic><text>der</text></lyric>
      </note>
      <!-- LH: F whole -->
      <backup><duration>8</duration></backup>
      <note>
        <pitch><step>F</step><octave>2</octave></pitch>
        <duration>8</duration><type>whole</type>
        <staff>2</staff>
      </note>
    </measure>

    <measure number="12">
      <!-- RH: D D C (half) - "what you are." -->
      <note>
        <pitch><step>D</step><octave>4</octave></pitch>
        <duration>2</duration><type>quarter</type>
        <staff>1</staff>
        <lyric number="1"><syllabic>single</syllabic><text>what</text></lyric>
      </note>
      <note>
        <pitch><step>D</step><octave>4</octave></pitch>
        <duration>2</duration><type>quarter</type>
        <staff>1</staff>
        <lyric number="1"><syllabic>single</syllabic><text>you</text></lyric>
      </note>
      <note>
        <pitch><step>C</step><octave>4</octave></pitch>
        <duration>4</duration><type>half</type>
        <staff>1</staff>
        <lyric number="1"><syllabic>single</syllabic><text>are.</text></lyric>
      </note>
      <!-- LH: G half, C half -->
      <backup><duration>8</duration></backup>
      <note>
        <pitch><step>G</step><octave>2</octave></pitch>
        <duration>4</duration><type>half</type>
        <staff>2</staff>
      </note>
      <note>
        <pitch><step>C</step><octave>3</octave></pitch>
        <duration>4</duration><type>half</type>
        <staff>2</staff>
      </note>
      <barline location="right">
        <bar-style>light-heavy</bar-style>
      </barline>
    </measure>
  </part>
</score-partwise>
